#!OML:ASF H:\Terrain\Patient Classification 1\Walking\steve\steve.ASF
:FULLY-SPECIFIED
:DEGREES
203
root 9.74936 16.464 11.3512 5.97618 -7.79447 1.79116
lowerback 0.525945 3.40377 -2.93531
upperback -2.25791 4.43443 -2.23395
thorax -2.66085 2.24935 -0.784324
lowerneck -9.64704 -1.10344 -2.52352
upperneck 12.0484 -2.05368 6.93075
head 5.3093 -0.644865 2.42969
rclavicle 8.09799e-014 -2.66371e-014
rhumerus -37.726 1.17213 -90.0543
rradius 56.1636
rwrist -19.0036
rhand -22.4864 -39.2853
rfingers 7.12502
rthumb 3.93905 -69.2286
lclavicle 8.09799e-014 -2.66371e-014
lhumerus -54.9676 39.1724 47.1936
lradius 10.0467
lwrist -36.2727
lhand -20.4794 -10.322
lfingers 7.12502
lthumb 5.87695 19.5765
rfemur -21.7803 5.20326 18.6889
rtibia 73.668
rfoot 0.256586 -2.28488
rtoes -15.6763
lfemur -25.9621 2.27674 -25.7063
ltibia 33.8108
lfoot -13.9937 -0.250502
ltoes 2.04814
204
root 9.76482 16.4914 11.583 5.93839 -7.40816 1.65873
lowerback 0.700588 3.21134 -2.64828
upperback -2.36625 4.17544 -2.12819
thorax -2.85488 2.11689 -0.841912
lowerneck -9.55197 -1.20133 -2.79067
upperneck 12.5637 -2.18511 6.99362
head 5.46245 -0.71057 2.48768
rclavicle 9.06955e-016 -7.15625e-015
rhumerus -39.1244 0.351662 -90.039
rradius 54.3276
rwrist -19.354
rhand -21.3995 -40.641
rfingers 7.12502
rthumb 4.98859 -70.5622
lclavicle 9.06955e-016 -7.15625e-015
lhumerus -50.187 37.1297 53.2207
lradius 10.3028
lwrist -32.0172
lhand -18.9085 -8.80634
lfingers 7.12502
lthumb 7.39346 21.0445
rfemur -23.1387 5.08154 18.9667
rtibia 73.8446
rfoot -1.85052 -1.74535
rtoes -6.14259
lfemur -24.6225 2.01555 -25.6967
ltibia 33.1348
lfoot -14.4332 -0.489629
ltoes 2.35243
205
root 9.78604 16.5071 11.8268 5.71987 -7.0397 2.15466
lowerback 0.82656 3.0054 -2.99101
upperback -2.34671 3.88601 -2.18765
thorax -2.92311 1.97942 -0.710164
lowerneck -9.63899 -1.09962 -2.45862
upperneck 13.0585 -2.04893 6.47122
head 5.6161 -0.655669 2.28158
rclavicle 2.54196e-014 -1.74931e-014
rhumerus -40.4226 -0.719776 -89.9062
rradius 52.4404
rwrist -19.4283
rhand -21.3721 -41.0885
rfingers 7.12502
rthumb 5.01506 -71.0091
lclavicle 2.54196e-014 -1.74931e-014
lhumerus -45.7311 34.8799 58.6491
lradius 10.6973
lwrist -28.3221
lhand -20.2251 -10.8566
lfingers 7.12502
lthumb 6.12249 19.0349
rfemur -24.8812 4.07542 18.8113
rtibia 73.6659
rfoot -2.8893 -1.45236
rtoes -20.634
lfemur -23.0369 1.81579 -26.4176
ltibia 32.4563
lfoot -14.9739 -0.983061
ltoes 3.32942
206
root 9.79912 16.4955 12.0698 5.53901 -6.74864 2.77823
lowerback 0.691755 2.80578 -3.59373
upperback -2.19061 3.61654 -2.2368
thorax -2.71861 1.85448 -0.403775
lowerneck -9.83998 -0.950927 -2.4585
upperneck 13.4818 -1.84869 6.34916
head 5.77206 -0.557295 2.26166
rclavicle 5.21686e-014 -1.35174e-014
rhumerus -41.2768 -1.72653 -89.6384
rradius 50.1649
rwrist -19.3477
rhand -22.9877 -40.4973
rfingers 7.12502
rthumb 3.45496 -70.449
lclavicle 5.21686e-014 -1.35174e-014
lhumerus -41.4188 32.1369 63.9526
lradius 11.2673
lwrist -24.1954
lhand -21.4954 -12.0055
lfingers 7.12502
lthumb 4.89597 17.9179
rfemur -26.486 3.45827 18.4468
rtibia 73.5079
rfoot -4.78377 -1.1243
rtoes -23.4424
lfemur -21.536 1.69117 -27.2507
ltibia 31.759
lfoot -15.6526 -1.28026
ltoes 1.84822
207
root 9.81004 16.487 12.3081 5.39857 -6.39778 3.15047
lowerback 0.634795 2.60152 -3.94786
upperback -2.09928 3.34452 -2.17495
thorax -2.61142 1.72465 -0.128729
lowerneck -9.86312 -0.944768 -2.99904
upperneck 13.8799 -1.82778 6.7003
head 5.90647 -0.543126 2.46815
rclavicle -4.19933e-015 1.98785e-014
rhumerus -42.2354 -2.70609 -89.1283
rradius 47.8184
rwrist -18.9575
rhand -24.7259 -46.796
rfingers 7.12502
rthumb 1.77626 -76.7684
lclavicle -4.19933e-015 1.98785e-014
lhumerus -37.6501 28.5145 69.0314
lradius 12.3789
lwrist -19.6289
lhand -21.9564 -11.9546
lfingers 7.12502
lthumb 4.45087 17.9786
rfemur -27.9428 2.89257 18.4033
rtibia 73.1042
rfoot -6.92389 -0.788699
rtoes -21.6554
lfemur -20.0609 1.42818 -27.7645
ltibia 31.0545
lfoot -16.371 -1.47207
ltoes -1.2736
208
root 9.8266 16.4957 12.5519 5.31677 -6.01374 3.23549
lowerback 0.615221 2.41428 -3.90334
upperback -2.08952 3.09902 -2.09442
thorax -2.58517 1.60187 -0.0611259
lowerneck -9.58239 -0.938734 -3.23112
upperneck 14.0471 -1.81354 6.81442
head 5.91197 -0.542789 2.5458
rclavicle 4.24654e-014 -2.50469e-014
rhumerus -43.6017 -3.55839 -88.7949
rradius 46.0706
rwrist -19.4244
rhand -25.1508 -46.0322
rfingers 7.12502
rthumb 1.36592 -76.0076
lclavicle 4.24654e-014 -2.50469e-014
lhumerus -34.6082 25.2249 72.8677
lradius 13.5963
lwrist -16.5027
lhand -21.892 -11.3719
lfingers 7.12502
lthumb 4.51303 18.56
rfemur -29.3736 2.21174 18.7025
rtibia 72.4564
rfoot -8.96564 -0.633889
rtoes -21.9771
lfemur -18.6553 1.10463 -27.9887
ltibia 30.5095
lfoot -16.9773 -1.7299
ltoes -5.35578
